<?xml version="1.0" encoding="utf-8" standalone="no"?>
<!DOCTYPE svg PUBLIC "-//W3C//DTD SVG 1.1//EN"
  "http://www.w3.org/Graphics/SVG/1.1/DTD/svg11.dtd">
<!-- Created with matplotlib (http://matplotlib.org/) -->
<svg height="288pt" version="1.1" viewBox="0 0 864 288" width="864pt" xmlns="http://www.w3.org/2000/svg" xmlns:xlink="http://www.w3.org/1999/xlink">
 <defs>
  <style type="text/css">
*{stroke-linecap:butt;stroke-linejoin:round;}
  </style>
 </defs>
 <g id="figure_1">
  <g id="patch_1">
   <path d="M 0 288 
L 864 288 
L 864 0 
L 0 0 
z
" style="fill:#ffffff;"/>
  </g>
  <g id="axes_1">
   <g id="patch_2">
    <path d="M 93.95 227.2 
L 418.445949 227.2 
L 418.445949 36.2 
L 93.95 36.2 
z
" style="fill:#ffffff;"/>
   </g>
   <g id="matplotlib.axis_1">
    <g id="xtick_1">
     <g id="line2d_1">
      <defs>
       <path d="M 0 0 
L 0 3.5 
" id="m25505fb965" style="stroke:#000000;stroke-width:0.8;"/>
      </defs>
      <g>
       <use style="stroke:#000000;stroke-width:0.8;" x="108.699816" xlink:href="#m25505fb965" y="227.2"/>
      </g>
     </g>
     <g id="text_1">
      <!-- $\mathdefault{10^{2}}$ -->
      <defs>
       <path d="M 34.90625 0 
L 27 0 
L 27 50.875 
Q 27 57.234375 27.390625 62.890625 
Q 26.375 61.859375 25.09375 60.734375 
Q 23.828125 59.625 13.484375 51.21875 
L 9.1875 56.78125 
L 28.078125 71.390625 
L 34.90625 71.390625 
z
" id="OpenSans-Regular-31"/>
       <path d="M 52.203125 35.796875 
Q 52.203125 17.28125 46.359375 8.140625 
Q 40.53125 -0.984375 28.515625 -0.984375 
Q 17 -0.984375 10.984375 8.359375 
Q 4.984375 17.71875 4.984375 35.796875 
Q 4.984375 54.4375 10.796875 63.46875 
Q 16.609375 72.515625 28.515625 72.515625 
Q 40.140625 72.515625 46.171875 63.078125 
Q 52.203125 53.65625 52.203125 35.796875 
z
M 13.1875 35.796875 
Q 13.1875 20.21875 16.84375 13.109375 
Q 20.515625 6 28.515625 6 
Q 36.625 6 40.25 13.203125 
Q 43.890625 20.40625 43.890625 35.796875 
Q 43.890625 51.171875 40.25 58.328125 
Q 36.625 65.484375 28.515625 65.484375 
Q 20.515625 65.484375 16.84375 58.421875 
Q 13.1875 51.375 13.1875 35.796875 
z
" id="OpenSans-Regular-30"/>
       <path d="M 51.8125 0 
L 4.890625 0 
L 4.890625 6.984375 
L 23.6875 25.875 
Q 32.28125 34.578125 35.015625 38.28125 
Q 37.75 42 39.109375 45.515625 
Q 40.484375 49.03125 40.484375 53.078125 
Q 40.484375 58.796875 37.015625 62.140625 
Q 33.546875 65.484375 27.390625 65.484375 
Q 22.953125 65.484375 18.96875 64.015625 
Q 14.984375 62.546875 10.109375 58.6875 
L 5.8125 64.203125 
Q 15.671875 72.40625 27.296875 72.40625 
Q 37.359375 72.40625 43.0625 67.25 
Q 48.78125 62.109375 48.78125 53.421875 
Q 48.78125 46.625 44.96875 39.984375 
Q 41.15625 33.34375 30.71875 23.1875 
L 15.09375 7.90625 
L 15.09375 7.515625 
L 51.8125 7.515625 
z
" id="OpenSans-Regular-32"/>
      </defs>
      <g transform="translate(96.849816 245.597656)scale(0.15 -0.15)">
       <use transform="translate(0 0.854688)" xlink:href="#OpenSans-Regular-31"/>
       <use transform="translate(57.177734 0.854688)" xlink:href="#OpenSans-Regular-30"/>
       <use transform="translate(115.291992 38.315625)scale(0.7)" xlink:href="#OpenSans-Regular-32"/>
      </g>
     </g>
    </g>
    <g id="xtick_2">
     <g id="line2d_2">
      <g>
       <use style="stroke:#000000;stroke-width:0.8;" x="169.585337" xlink:href="#m25505fb965" y="227.2"/>
      </g>
     </g>
     <g id="text_2">
      <!-- $\mathdefault{10^{3}}$ -->
      <defs>
       <path d="M 49.125 54.59375 
Q 49.125 47.75 45.28125 43.40625 
Q 41.453125 39.0625 34.421875 37.59375 
L 34.421875 37.203125 
Q 43.015625 36.140625 47.15625 31.734375 
Q 51.3125 27.34375 51.3125 20.21875 
Q 51.3125 10.015625 44.234375 4.515625 
Q 37.15625 -0.984375 24.125 -0.984375 
Q 18.453125 -0.984375 13.734375 -0.125 
Q 9.03125 0.734375 4.59375 2.875 
L 4.59375 10.59375 
Q 9.234375 8.296875 14.484375 7.09375 
Q 19.734375 5.90625 24.421875 5.90625 
Q 42.921875 5.90625 42.921875 20.40625 
Q 42.921875 33.40625 22.515625 33.40625 
L 15.484375 33.40625 
L 15.484375 40.375 
L 22.609375 40.375 
Q 30.953125 40.375 35.828125 44.0625 
Q 40.71875 47.75 40.71875 54.296875 
Q 40.71875 59.515625 37.125 62.5 
Q 33.546875 65.484375 27.390625 65.484375 
Q 22.703125 65.484375 18.546875 64.203125 
Q 14.40625 62.9375 9.078125 59.515625 
L 4.984375 64.984375 
Q 9.375 68.453125 15.109375 70.421875 
Q 20.84375 72.40625 27.203125 72.40625 
Q 37.59375 72.40625 43.359375 67.640625 
Q 49.125 62.890625 49.125 54.59375 
z
" id="OpenSans-Regular-33"/>
      </defs>
      <g transform="translate(157.735337 245.597656)scale(0.15 -0.15)">
       <use transform="translate(0 0.854688)" xlink:href="#OpenSans-Regular-31"/>
       <use transform="translate(57.177734 0.854688)" xlink:href="#OpenSans-Regular-30"/>
       <use transform="translate(115.291992 38.315625)scale(0.7)" xlink:href="#OpenSans-Regular-33"/>
      </g>
     </g>
    </g>
    <g id="xtick_3">
     <g id="line2d_3">
      <g>
       <use style="stroke:#000000;stroke-width:0.8;" x="230.470857" xlink:href="#m25505fb965" y="227.2"/>
      </g>
     </g>
     <g id="text_3">
      <!-- $\mathdefault{10^{4}}$ -->
      <defs>
       <path d="M 55.171875 16.40625 
L 44.578125 16.40625 
L 44.578125 0 
L 36.8125 0 
L 36.8125 16.40625 
L 2.09375 16.40625 
L 2.09375 23.484375 
L 35.984375 71.78125 
L 44.578125 71.78125 
L 44.578125 23.78125 
L 55.171875 23.78125 
z
M 36.8125 23.78125 
L 36.8125 47.515625 
Q 36.8125 54.5 37.3125 63.28125 
L 36.921875 63.28125 
Q 34.578125 58.59375 32.515625 55.515625 
L 10.203125 23.78125 
z
" id="OpenSans-Regular-34"/>
      </defs>
      <g transform="translate(218.620857 245.597656)scale(0.15 -0.15)">
       <use transform="translate(0 0.292188)" xlink:href="#OpenSans-Regular-31"/>
       <use transform="translate(57.177734 0.292188)" xlink:href="#OpenSans-Regular-30"/>
       <use transform="translate(115.291992 37.753125)scale(0.7)" xlink:href="#OpenSans-Regular-34"/>
      </g>
     </g>
    </g>
    <g id="xtick_4">
     <g id="line2d_4">
      <g>
       <use style="stroke:#000000;stroke-width:0.8;" x="291.356378" xlink:href="#m25505fb965" y="227.2"/>
      </g>
     </g>
     <g id="text_4">
      <!-- $\mathdefault{10^{5}}$ -->
      <defs>
       <path d="M 27.203125 43.609375 
Q 38.484375 43.609375 44.953125 38.015625 
Q 51.421875 32.421875 51.421875 22.703125 
Q 51.421875 11.625 44.359375 5.3125 
Q 37.3125 -0.984375 24.90625 -0.984375 
Q 12.84375 -0.984375 6.5 2.875 
L 6.5 10.6875 
Q 9.90625 8.5 14.984375 7.25 
Q 20.0625 6 25 6 
Q 33.59375 6 38.34375 10.046875 
Q 43.109375 14.109375 43.109375 21.78125 
Q 43.109375 36.71875 24.8125 36.71875 
Q 20.171875 36.71875 12.40625 35.296875 
L 8.203125 37.984375 
L 10.890625 71.390625 
L 46.390625 71.390625 
L 46.390625 63.921875 
L 17.828125 63.921875 
L 16.015625 42.484375 
Q 21.625 43.609375 27.203125 43.609375 
z
" id="OpenSans-Regular-35"/>
      </defs>
      <g transform="translate(279.506378 245.597656)scale(0.15 -0.15)">
       <use transform="translate(0 0.565625)" xlink:href="#OpenSans-Regular-31"/>
       <use transform="translate(57.177734 0.565625)" xlink:href="#OpenSans-Regular-30"/>
       <use transform="translate(115.291992 38.026563)scale(0.7)" xlink:href="#OpenSans-Regular-35"/>
      </g>
     </g>
    </g>
    <g id="xtick_5">
     <g id="line2d_5">
      <g>
       <use style="stroke:#000000;stroke-width:0.8;" x="352.241899" xlink:href="#m25505fb965" y="227.2"/>
      </g>
     </g>
     <g id="text_5">
      <!-- $\mathdefault{10^{6}}$ -->
      <defs>
       <path d="M 5.71875 30.515625 
Q 5.71875 51.5625 13.890625 61.984375 
Q 22.078125 72.40625 38.09375 72.40625 
Q 43.609375 72.40625 46.78125 71.484375 
L 46.78125 64.5 
Q 43.015625 65.71875 38.1875 65.71875 
Q 26.703125 65.71875 20.640625 58.5625 
Q 14.59375 51.421875 14.015625 36.078125 
L 14.59375 36.078125 
Q 19.96875 44.484375 31.59375 44.484375 
Q 41.21875 44.484375 46.75 38.671875 
Q 52.296875 32.859375 52.296875 22.90625 
Q 52.296875 11.765625 46.21875 5.390625 
Q 40.140625 -0.984375 29.78125 -0.984375 
Q 18.703125 -0.984375 12.203125 7.34375 
Q 5.71875 15.671875 5.71875 30.515625 
z
M 29.6875 5.90625 
Q 36.625 5.90625 40.453125 10.28125 
Q 44.28125 14.65625 44.28125 22.90625 
Q 44.28125 29.984375 40.71875 34.03125 
Q 37.15625 38.09375 30.078125 38.09375 
Q 25.6875 38.09375 22.015625 36.28125 
Q 18.359375 34.46875 16.1875 31.296875 
Q 14.015625 28.125 14.015625 24.703125 
Q 14.015625 19.671875 15.96875 15.328125 
Q 17.921875 10.984375 21.5 8.4375 
Q 25.09375 5.90625 29.6875 5.90625 
z
" id="OpenSans-Regular-36"/>
      </defs>
      <g transform="translate(340.391899 245.597656)scale(0.15 -0.15)">
       <use transform="translate(0 0.854688)" xlink:href="#OpenSans-Regular-31"/>
       <use transform="translate(57.177734 0.854688)" xlink:href="#OpenSans-Regular-30"/>
       <use transform="translate(115.291992 38.315625)scale(0.7)" xlink:href="#OpenSans-Regular-36"/>
      </g>
     </g>
    </g>
    <g id="xtick_6">
     <g id="line2d_6">
      <g>
       <use style="stroke:#000000;stroke-width:0.8;" x="413.12742" xlink:href="#m25505fb965" y="227.2"/>
      </g>
     </g>
     <g id="text_6">
      <!-- $\mathdefault{10^{7}}$ -->
      <defs>
       <path d="M 13.921875 0 
L 43.5 63.921875 
L 4.59375 63.921875 
L 4.59375 71.390625 
L 52.09375 71.390625 
L 52.09375 64.890625 
L 22.90625 0 
z
" id="OpenSans-Regular-37"/>
      </defs>
      <g transform="translate(401.27742 245.597656)scale(0.15 -0.15)">
       <use transform="translate(0 0.565625)" xlink:href="#OpenSans-Regular-31"/>
       <use transform="translate(57.177734 0.565625)" xlink:href="#OpenSans-Regular-30"/>
       <use transform="translate(115.291992 38.026563)scale(0.7)" xlink:href="#OpenSans-Regular-37"/>
      </g>
     </g>
    </g>
    <g id="xtick_7">
     <g id="line2d_7">
      <defs>
       <path d="M 0 0 
L 0 2 
" id="m36e3c2f8eb" style="stroke:#000000;stroke-width:0.6;"/>
      </defs>
      <g>
       <use style="stroke:#000000;stroke-width:0.6;" x="95.192439" xlink:href="#m36e3c2f8eb" y="227.2"/>
      </g>
     </g>
    </g>
    <g id="xtick_8">
     <g id="line2d_8">
      <g>
       <use style="stroke:#000000;stroke-width:0.6;" x="99.268529" xlink:href="#m36e3c2f8eb" y="227.2"/>
      </g>
     </g>
    </g>
    <g id="xtick_9">
     <g id="line2d_9">
      <g>
       <use style="stroke:#000000;stroke-width:0.6;" x="102.799399" xlink:href="#m36e3c2f8eb" y="227.2"/>
      </g>
     </g>
    </g>
    <g id="xtick_10">
     <g id="line2d_10">
      <g>
       <use style="stroke:#000000;stroke-width:0.6;" x="105.913847" xlink:href="#m36e3c2f8eb" y="227.2"/>
      </g>
     </g>
    </g>
    <g id="xtick_11">
     <g id="line2d_11">
      <g>
       <use style="stroke:#000000;stroke-width:0.6;" x="127.028184" xlink:href="#m36e3c2f8eb" y="227.2"/>
      </g>
     </g>
    </g>
    <g id="xtick_12">
     <g id="line2d_12">
      <g>
       <use style="stroke:#000000;stroke-width:0.6;" x="137.749592" xlink:href="#m36e3c2f8eb" y="227.2"/>
      </g>
     </g>
    </g>
    <g id="xtick_13">
     <g id="line2d_13">
      <g>
       <use style="stroke:#000000;stroke-width:0.6;" x="145.356552" xlink:href="#m36e3c2f8eb" y="227.2"/>
      </g>
     </g>
    </g>
    <g id="xtick_14">
     <g id="line2d_14">
      <g>
       <use style="stroke:#000000;stroke-width:0.6;" x="151.256969" xlink:href="#m36e3c2f8eb" y="227.2"/>
      </g>
     </g>
    </g>
    <g id="xtick_15">
     <g id="line2d_15">
      <g>
       <use style="stroke:#000000;stroke-width:0.6;" x="156.07796" xlink:href="#m36e3c2f8eb" y="227.2"/>
      </g>
     </g>
    </g>
    <g id="xtick_16">
     <g id="line2d_16">
      <g>
       <use style="stroke:#000000;stroke-width:0.6;" x="160.15405" xlink:href="#m36e3c2f8eb" y="227.2"/>
      </g>
     </g>
    </g>
    <g id="xtick_17">
     <g id="line2d_17">
      <g>
       <use style="stroke:#000000;stroke-width:0.6;" x="163.68492" xlink:href="#m36e3c2f8eb" y="227.2"/>
      </g>
     </g>
    </g>
    <g id="xtick_18">
     <g id="line2d_18">
      <g>
       <use style="stroke:#000000;stroke-width:0.6;" x="166.799368" xlink:href="#m36e3c2f8eb" y="227.2"/>
      </g>
     </g>
    </g>
    <g id="xtick_19">
     <g id="line2d_19">
      <g>
       <use style="stroke:#000000;stroke-width:0.6;" x="187.913705" xlink:href="#m36e3c2f8eb" y="227.2"/>
      </g>
     </g>
    </g>
    <g id="xtick_20">
     <g id="line2d_20">
      <g>
       <use style="stroke:#000000;stroke-width:0.6;" x="198.635113" xlink:href="#m36e3c2f8eb" y="227.2"/>
      </g>
     </g>
    </g>
    <g id="xtick_21">
     <g id="line2d_21">
      <g>
       <use style="stroke:#000000;stroke-width:0.6;" x="206.242073" xlink:href="#m36e3c2f8eb" y="227.2"/>
      </g>
     </g>
    </g>
    <g id="xtick_22">
     <g id="line2d_22">
      <g>
       <use style="stroke:#000000;stroke-width:0.6;" x="212.142489" xlink:href="#m36e3c2f8eb" y="227.2"/>
      </g>
     </g>
    </g>
    <g id="xtick_23">
     <g id="line2d_23">
      <g>
       <use style="stroke:#000000;stroke-width:0.6;" x="216.963481" xlink:href="#m36e3c2f8eb" y="227.2"/>
      </g>
     </g>
    </g>
    <g id="xtick_24">
     <g id="line2d_24">
      <g>
       <use style="stroke:#000000;stroke-width:0.6;" x="221.039571" xlink:href="#m36e3c2f8eb" y="227.2"/>
      </g>
     </g>
    </g>
    <g id="xtick_25">
     <g id="line2d_25">
      <g>
       <use style="stroke:#000000;stroke-width:0.6;" x="224.570441" xlink:href="#m36e3c2f8eb" y="227.2"/>
      </g>
     </g>
    </g>
    <g id="xtick_26">
     <g id="line2d_26">
      <g>
       <use style="stroke:#000000;stroke-width:0.6;" x="227.684889" xlink:href="#m36e3c2f8eb" y="227.2"/>
      </g>
     </g>
    </g>
    <g id="xtick_27">
     <g id="line2d_27">
      <g>
       <use style="stroke:#000000;stroke-width:0.6;" x="248.799225" xlink:href="#m36e3c2f8eb" y="227.2"/>
      </g>
     </g>
    </g>
    <g id="xtick_28">
     <g id="line2d_28">
      <g>
       <use style="stroke:#000000;stroke-width:0.6;" x="259.520633" xlink:href="#m36e3c2f8eb" y="227.2"/>
      </g>
     </g>
    </g>
    <g id="xtick_29">
     <g id="line2d_29">
      <g>
       <use style="stroke:#000000;stroke-width:0.6;" x="267.127593" xlink:href="#m36e3c2f8eb" y="227.2"/>
      </g>
     </g>
    </g>
    <g id="xtick_30">
     <g id="line2d_30">
      <g>
       <use style="stroke:#000000;stroke-width:0.6;" x="273.02801" xlink:href="#m36e3c2f8eb" y="227.2"/>
      </g>
     </g>
    </g>
    <g id="xtick_31">
     <g id="line2d_31">
      <g>
       <use style="stroke:#000000;stroke-width:0.6;" x="277.849001" xlink:href="#m36e3c2f8eb" y="227.2"/>
      </g>
     </g>
    </g>
    <g id="xtick_32">
     <g id="line2d_32">
      <g>
       <use style="stroke:#000000;stroke-width:0.6;" x="281.925092" xlink:href="#m36e3c2f8eb" y="227.2"/>
      </g>
     </g>
    </g>
    <g id="xtick_33">
     <g id="line2d_33">
      <g>
       <use style="stroke:#000000;stroke-width:0.6;" x="285.455962" xlink:href="#m36e3c2f8eb" y="227.2"/>
      </g>
     </g>
    </g>
    <g id="xtick_34">
     <g id="line2d_34">
      <g>
       <use style="stroke:#000000;stroke-width:0.6;" x="288.57041" xlink:href="#m36e3c2f8eb" y="227.2"/>
      </g>
     </g>
    </g>
    <g id="xtick_35">
     <g id="line2d_35">
      <g>
       <use style="stroke:#000000;stroke-width:0.6;" x="309.684746" xlink:href="#m36e3c2f8eb" y="227.2"/>
      </g>
     </g>
    </g>
    <g id="xtick_36">
     <g id="line2d_36">
      <g>
       <use style="stroke:#000000;stroke-width:0.6;" x="320.406154" xlink:href="#m36e3c2f8eb" y="227.2"/>
      </g>
     </g>
    </g>
    <g id="xtick_37">
     <g id="line2d_37">
      <g>
       <use style="stroke:#000000;stroke-width:0.6;" x="328.013114" xlink:href="#m36e3c2f8eb" y="227.2"/>
      </g>
     </g>
    </g>
    <g id="xtick_38">
     <g id="line2d_38">
      <g>
       <use style="stroke:#000000;stroke-width:0.6;" x="333.913531" xlink:href="#m36e3c2f8eb" y="227.2"/>
      </g>
     </g>
    </g>
    <g id="xtick_39">
     <g id="line2d_39">
      <g>
       <use style="stroke:#000000;stroke-width:0.6;" x="338.734522" xlink:href="#m36e3c2f8eb" y="227.2"/>
      </g>
     </g>
    </g>
    <g id="xtick_40">
     <g id="line2d_40">
      <g>
       <use style="stroke:#000000;stroke-width:0.6;" x="342.810612" xlink:href="#m36e3c2f8eb" y="227.2"/>
      </g>
     </g>
    </g>
    <g id="xtick_41">
     <g id="line2d_41">
      <g>
       <use style="stroke:#000000;stroke-width:0.6;" x="346.341482" xlink:href="#m36e3c2f8eb" y="227.2"/>
      </g>
     </g>
    </g>
    <g id="xtick_42">
     <g id="line2d_42">
      <g>
       <use style="stroke:#000000;stroke-width:0.6;" x="349.45593" xlink:href="#m36e3c2f8eb" y="227.2"/>
      </g>
     </g>
    </g>
    <g id="xtick_43">
     <g id="line2d_43">
      <g>
       <use style="stroke:#000000;stroke-width:0.6;" x="370.570267" xlink:href="#m36e3c2f8eb" y="227.2"/>
      </g>
     </g>
    </g>
    <g id="xtick_44">
     <g id="line2d_44">
      <g>
       <use style="stroke:#000000;stroke-width:0.6;" x="381.291675" xlink:href="#m36e3c2f8eb" y="227.2"/>
      </g>
     </g>
    </g>
    <g id="xtick_45">
     <g id="line2d_45">
      <g>
       <use style="stroke:#000000;stroke-width:0.6;" x="388.898635" xlink:href="#m36e3c2f8eb" y="227.2"/>
      </g>
     </g>
    </g>
    <g id="xtick_46">
     <g id="line2d_46">
      <g>
       <use style="stroke:#000000;stroke-width:0.6;" x="394.799052" xlink:href="#m36e3c2f8eb" y="227.2"/>
      </g>
     </g>
    </g>
    <g id="xtick_47">
     <g id="line2d_47">
      <g>
       <use style="stroke:#000000;stroke-width:0.6;" x="399.620043" xlink:href="#m36e3c2f8eb" y="227.2"/>
      </g>
     </g>
    </g>
    <g id="xtick_48">
     <g id="line2d_48">
      <g>
       <use style="stroke:#000000;stroke-width:0.6;" x="403.696133" xlink:href="#m36e3c2f8eb" y="227.2"/>
      </g>
     </g>
    </g>
    <g id="xtick_49">
     <g id="line2d_49">
      <g>
       <use style="stroke:#000000;stroke-width:0.6;" x="407.227003" xlink:href="#m36e3c2f8eb" y="227.2"/>
      </g>
     </g>
    </g>
    <g id="xtick_50">
     <g id="line2d_50">
      <g>
       <use style="stroke:#000000;stroke-width:0.6;" x="410.341451" xlink:href="#m36e3c2f8eb" y="227.2"/>
      </g>
     </g>
    </g>
    <g id="text_7">
     <!-- Batch size -->
     <defs>
      <path d="M 9.8125 71.390625 
L 29.984375 71.390625 
Q 44.1875 71.390625 50.53125 67.140625 
Q 56.890625 62.890625 56.890625 53.71875 
Q 56.890625 47.359375 53.34375 43.234375 
Q 49.8125 39.109375 43.015625 37.890625 
L 43.015625 37.40625 
Q 59.28125 34.625 59.28125 20.3125 
Q 59.28125 10.75 52.8125 5.375 
Q 46.34375 0 34.71875 0 
L 9.8125 0 
z
M 18.109375 40.828125 
L 31.78125 40.828125 
Q 40.578125 40.828125 44.4375 43.578125 
Q 48.296875 46.34375 48.296875 52.875 
Q 48.296875 58.890625 44 61.546875 
Q 39.703125 64.203125 30.328125 64.203125 
L 18.109375 64.203125 
z
M 18.109375 33.796875 
L 18.109375 7.078125 
L 33.015625 7.078125 
Q 41.65625 7.078125 46.015625 10.421875 
Q 50.390625 13.765625 50.390625 20.90625 
Q 50.390625 27.546875 45.921875 30.671875 
Q 41.453125 33.796875 32.328125 33.796875 
z
" id="OpenSans-Regular-42"/>
      <path d="M 41.5 0 
L 39.890625 7.625 
L 39.5 7.625 
Q 35.5 2.59375 31.515625 0.796875 
Q 27.546875 -0.984375 21.578125 -0.984375 
Q 13.625 -0.984375 9.109375 3.125 
Q 4.59375 7.234375 4.59375 14.796875 
Q 4.59375 31 30.515625 31.78125 
L 39.59375 32.078125 
L 39.59375 35.40625 
Q 39.59375 41.703125 36.890625 44.703125 
Q 34.1875 47.703125 28.21875 47.703125 
Q 21.53125 47.703125 13.09375 43.609375 
L 10.59375 49.8125 
Q 14.546875 51.953125 19.25 53.171875 
Q 23.96875 54.390625 28.71875 54.390625 
Q 38.28125 54.390625 42.890625 50.140625 
Q 47.515625 45.90625 47.515625 36.53125 
L 47.515625 0 
z
M 23.1875 5.71875 
Q 30.765625 5.71875 35.078125 9.859375 
Q 39.40625 14.015625 39.40625 21.484375 
L 39.40625 26.3125 
L 31.296875 25.984375 
Q 21.625 25.640625 17.359375 22.96875 
Q 13.09375 20.3125 13.09375 14.703125 
Q 13.09375 10.296875 15.75 8 
Q 18.40625 5.71875 23.1875 5.71875 
z
" id="OpenSans-Regular-61"/>
      <path d="M 25.875 5.71875 
Q 28.03125 5.71875 30.03125 6.03125 
Q 32.03125 6.34375 33.203125 6.6875 
L 33.203125 0.484375 
Q 31.890625 -0.140625 29.328125 -0.5625 
Q 26.765625 -0.984375 24.703125 -0.984375 
Q 9.1875 -0.984375 9.1875 15.375 
L 9.1875 47.21875 
L 1.515625 47.21875 
L 1.515625 51.125 
L 9.1875 54.5 
L 12.59375 65.921875 
L 17.28125 65.921875 
L 17.28125 53.515625 
L 32.8125 53.515625 
L 32.8125 47.21875 
L 17.28125 47.21875 
L 17.28125 15.71875 
Q 17.28125 10.890625 19.578125 8.296875 
Q 21.875 5.71875 25.875 5.71875 
z
" id="OpenSans-Regular-74"/>
      <path d="M 29.984375 -0.984375 
Q 18.359375 -0.984375 11.984375 6.171875 
Q 5.609375 13.328125 5.609375 26.421875 
Q 5.609375 39.84375 12.078125 47.171875 
Q 18.5625 54.5 30.515625 54.5 
Q 34.375 54.5 38.234375 53.65625 
Q 42.09375 52.828125 44.28125 51.703125 
L 41.796875 44.828125 
Q 39.109375 45.90625 35.9375 46.609375 
Q 32.765625 47.3125 30.328125 47.3125 
Q 14.015625 47.3125 14.015625 26.515625 
Q 14.015625 16.65625 17.984375 11.375 
Q 21.96875 6.109375 29.78125 6.109375 
Q 36.46875 6.109375 43.5 8.984375 
L 43.5 1.8125 
Q 38.140625 -0.984375 29.984375 -0.984375 
z
" id="OpenSans-Regular-63"/>
      <path d="M 45.21875 0 
L 45.21875 34.625 
Q 45.21875 41.15625 42.234375 44.375 
Q 39.265625 47.609375 32.90625 47.609375 
Q 24.46875 47.609375 20.578125 43.015625 
Q 16.703125 38.421875 16.703125 27.984375 
L 16.703125 0 
L 8.59375 0 
L 8.59375 75.984375 
L 16.703125 75.984375 
L 16.703125 52.984375 
Q 16.703125 48.828125 16.3125 46.09375 
L 16.796875 46.09375 
Q 19.1875 49.953125 23.609375 52.171875 
Q 28.03125 54.390625 33.6875 54.390625 
Q 43.5 54.390625 48.40625 49.71875 
Q 53.328125 45.0625 53.328125 34.90625 
L 53.328125 0 
z
" id="OpenSans-Regular-68"/>
      <path id="OpenSans-Regular-20"/>
      <path d="M 43.109375 14.59375 
Q 43.109375 7.125 37.546875 3.0625 
Q 31.984375 -0.984375 21.921875 -0.984375 
Q 11.28125 -0.984375 5.328125 2.390625 
L 5.328125 9.90625 
Q 9.1875 7.953125 13.59375 6.828125 
Q 18.015625 5.71875 22.125 5.71875 
Q 28.46875 5.71875 31.875 7.734375 
Q 35.296875 9.765625 35.296875 13.921875 
Q 35.296875 17.046875 32.59375 19.265625 
Q 29.890625 21.484375 22.015625 24.515625 
Q 14.546875 27.296875 11.390625 29.375 
Q 8.25 31.453125 6.703125 34.078125 
Q 5.171875 36.71875 5.171875 40.375 
Q 5.171875 46.921875 10.5 50.703125 
Q 15.828125 54.5 25.09375 54.5 
Q 33.734375 54.5 42 50.984375 
L 39.109375 44.390625 
Q 31.0625 47.703125 24.515625 47.703125 
Q 18.75 47.703125 15.8125 45.890625 
Q 12.890625 44.09375 12.890625 40.921875 
Q 12.890625 38.765625 13.984375 37.25 
Q 15.09375 35.75 17.53125 34.375 
Q 19.96875 33.015625 26.90625 30.421875 
Q 36.421875 26.953125 39.765625 23.4375 
Q 43.109375 19.921875 43.109375 14.59375 
z
" id="OpenSans-Regular-73"/>
      <path d="M 16.703125 0 
L 8.59375 0 
L 8.59375 53.515625 
L 16.703125 53.515625 
z
M 7.90625 68.015625 
Q 7.90625 70.796875 9.265625 72.09375 
Q 10.640625 73.390625 12.703125 73.390625 
Q 14.65625 73.390625 16.0625 72.0625 
Q 17.484375 70.75 17.484375 68.015625 
Q 17.484375 65.28125 16.0625 63.9375 
Q 14.65625 62.59375 12.703125 62.59375 
Q 10.640625 62.59375 9.265625 63.9375 
Q 7.90625 65.28125 7.90625 68.015625 
z
" id="OpenSans-Regular-69"/>
      <path d="M 42.828125 0 
L 4 0 
L 4 5.515625 
L 33.203125 47.21875 
L 5.8125 47.21875 
L 5.8125 53.515625 
L 42.09375 53.515625 
L 42.09375 47.21875 
L 13.28125 6.296875 
L 42.828125 6.296875 
z
" id="OpenSans-Regular-7a"/>
      <path d="M 31.203125 -0.984375 
Q 19.34375 -0.984375 12.46875 6.25 
Q 5.609375 13.484375 5.609375 26.3125 
Q 5.609375 39.265625 11.984375 46.875 
Q 18.359375 54.5 29.109375 54.5 
Q 39.15625 54.5 45.015625 47.875 
Q 50.875 41.265625 50.875 30.421875 
L 50.875 25.296875 
L 14.015625 25.296875 
Q 14.265625 15.875 18.78125 10.984375 
Q 23.296875 6.109375 31.5 6.109375 
Q 40.140625 6.109375 48.578125 9.71875 
L 48.578125 2.484375 
Q 44.28125 0.640625 40.453125 -0.171875 
Q 36.625 -0.984375 31.203125 -0.984375 
z
M 29 47.703125 
Q 22.5625 47.703125 18.71875 43.5 
Q 14.890625 39.3125 14.203125 31.890625 
L 42.1875 31.890625 
Q 42.1875 39.546875 38.765625 43.625 
Q 35.359375 47.703125 29 47.703125 
z
" id="OpenSans-Regular-65"/>
     </defs>
     <g transform="translate(221.205787 264.6)scale(0.15 -0.15)">
      <use xlink:href="#OpenSans-Regular-42"/>
      <use x="64.794922" xlink:href="#OpenSans-Regular-61"/>
      <use x="120.410156" xlink:href="#OpenSans-Regular-74"/>
      <use x="155.712891" xlink:href="#OpenSans-Regular-63"/>
      <use x="203.320312" xlink:href="#OpenSans-Regular-68"/>
      <use x="264.697266" xlink:href="#OpenSans-Regular-20"/>
      <use x="290.673828" xlink:href="#OpenSans-Regular-73"/>
      <use x="338.378906" xlink:href="#OpenSans-Regular-69"/>
      <use x="363.671875" xlink:href="#OpenSans-Regular-7a"/>
      <use x="410.449219" xlink:href="#OpenSans-Regular-65"/>
     </g>
    </g>
   </g>
   <g id="matplotlib.axis_2">
    <g id="ytick_1">
     <g id="line2d_51">
      <defs>
       <path d="M 0 0 
L -3.5 0 
" id="m4c9c4d81d1" style="stroke:#000000;stroke-width:0.8;"/>
      </defs>
      <g>
       <use style="stroke:#000000;stroke-width:0.8;" x="93.95" xlink:href="#m4c9c4d81d1" y="221.978035"/>
      </g>
     </g>
     <g id="text_8">
      <!-- 0 -->
      <g transform="translate(78.374219 227.676863)scale(0.15 -0.15)">
       <use xlink:href="#OpenSans-Regular-30"/>
      </g>
     </g>
    </g>
    <g id="ytick_2">
     <g id="line2d_52">
      <g>
       <use style="stroke:#000000;stroke-width:0.8;" x="93.95" xlink:href="#m4c9c4d81d1" y="187.992275"/>
      </g>
     </g>
     <g id="text_9">
      <!-- 100000 -->
      <g transform="translate(35.495313 193.691104)scale(0.15 -0.15)">
       <use xlink:href="#OpenSans-Regular-31"/>
       <use x="57.177734" xlink:href="#OpenSans-Regular-30"/>
       <use x="114.355469" xlink:href="#OpenSans-Regular-30"/>
       <use x="171.533203" xlink:href="#OpenSans-Regular-30"/>
       <use x="228.710938" xlink:href="#OpenSans-Regular-30"/>
       <use x="285.888672" xlink:href="#OpenSans-Regular-30"/>
      </g>
     </g>
    </g>
    <g id="ytick_3">
     <g id="line2d_53">
      <g>
       <use style="stroke:#000000;stroke-width:0.8;" x="93.95" xlink:href="#m4c9c4d81d1" y="154.006516"/>
      </g>
     </g>
     <g id="text_10">
      <!-- 200000 -->
      <g transform="translate(35.495313 159.705344)scale(0.15 -0.15)">
       <use xlink:href="#OpenSans-Regular-32"/>
       <use x="57.177734" xlink:href="#OpenSans-Regular-30"/>
       <use x="114.355469" xlink:href="#OpenSans-Regular-30"/>
       <use x="171.533203" xlink:href="#OpenSans-Regular-30"/>
       <use x="228.710938" xlink:href="#OpenSans-Regular-30"/>
       <use x="285.888672" xlink:href="#OpenSans-Regular-30"/>
      </g>
     </g>
    </g>
    <g id="ytick_4">
     <g id="line2d_54">
      <g>
       <use style="stroke:#000000;stroke-width:0.8;" x="93.95" xlink:href="#m4c9c4d81d1" y="120.020757"/>
      </g>
     </g>
     <g id="text_11">
      <!-- 300000 -->
      <g transform="translate(35.495313 125.719585)scale(0.15 -0.15)">
       <use xlink:href="#OpenSans-Regular-33"/>
       <use x="57.177734" xlink:href="#OpenSans-Regular-30"/>
       <use x="114.355469" xlink:href="#OpenSans-Regular-30"/>
       <use x="171.533203" xlink:href="#OpenSans-Regular-30"/>
       <use x="228.710938" xlink:href="#OpenSans-Regular-30"/>
       <use x="285.888672" xlink:href="#OpenSans-Regular-30"/>
      </g>
     </g>
    </g>
    <g id="ytick_5">
     <g id="line2d_55">
      <g>
       <use style="stroke:#000000;stroke-width:0.8;" x="93.95" xlink:href="#m4c9c4d81d1" y="86.034997"/>
      </g>
     </g>
     <g id="text_12">
      <!-- 400000 -->
      <g transform="translate(35.495313 91.733825)scale(0.15 -0.15)">
       <use xlink:href="#OpenSans-Regular-34"/>
       <use x="57.177734" xlink:href="#OpenSans-Regular-30"/>
       <use x="114.355469" xlink:href="#OpenSans-Regular-30"/>
       <use x="171.533203" xlink:href="#OpenSans-Regular-30"/>
       <use x="228.710938" xlink:href="#OpenSans-Regular-30"/>
       <use x="285.888672" xlink:href="#OpenSans-Regular-30"/>
      </g>
     </g>
    </g>
    <g id="ytick_6">
     <g id="line2d_56">
      <g>
       <use style="stroke:#000000;stroke-width:0.8;" x="93.95" xlink:href="#m4c9c4d81d1" y="52.049238"/>
      </g>
     </g>
     <g id="text_13">
      <!-- 500000 -->
      <g transform="translate(35.495313 57.748066)scale(0.15 -0.15)">
       <use xlink:href="#OpenSans-Regular-35"/>
       <use x="57.177734" xlink:href="#OpenSans-Regular-30"/>
       <use x="114.355469" xlink:href="#OpenSans-Regular-30"/>
       <use x="171.533203" xlink:href="#OpenSans-Regular-30"/>
       <use x="228.710938" xlink:href="#OpenSans-Regular-30"/>
       <use x="285.888672" xlink:href="#OpenSans-Regular-30"/>
      </g>
     </g>
    </g>
    <g id="text_14">
     <!-- Throughput (lines/sec) -->
     <defs>
      <path d="M 31.78125 0 
L 23.484375 0 
L 23.484375 64.015625 
L 0.875 64.015625 
L 0.875 71.390625 
L 54.390625 71.390625 
L 54.390625 64.015625 
L 31.78125 64.015625 
z
" id="OpenSans-Regular-54"/>
      <path d="M 33.015625 54.5 
Q 36.578125 54.5 39.40625 53.90625 
L 38.28125 46.390625 
Q 34.96875 47.125 32.421875 47.125 
Q 25.921875 47.125 21.3125 41.84375 
Q 16.703125 36.578125 16.703125 28.71875 
L 16.703125 0 
L 8.59375 0 
L 8.59375 53.515625 
L 15.28125 53.515625 
L 16.21875 43.609375 
L 16.609375 43.609375 
Q 19.578125 48.828125 23.78125 51.65625 
Q 27.984375 54.5 33.015625 54.5 
z
" id="OpenSans-Regular-72"/>
      <path d="M 54.78125 26.8125 
Q 54.78125 13.71875 48.1875 6.359375 
Q 41.609375 -0.984375 29.984375 -0.984375 
Q 22.796875 -0.984375 17.234375 2.390625 
Q 11.671875 5.765625 8.640625 12.0625 
Q 5.609375 18.359375 5.609375 26.8125 
Q 5.609375 39.890625 12.15625 47.1875 
Q 18.703125 54.5 30.328125 54.5 
Q 41.546875 54.5 48.15625 47.015625 
Q 54.78125 39.546875 54.78125 26.8125 
z
M 14.015625 26.8125 
Q 14.015625 16.546875 18.109375 11.171875 
Q 22.21875 5.8125 30.171875 5.8125 
Q 38.140625 5.8125 42.265625 11.15625 
Q 46.390625 16.5 46.390625 26.8125 
Q 46.390625 37.015625 42.265625 42.3125 
Q 38.140625 47.609375 30.078125 47.609375 
Q 22.125 47.609375 18.0625 42.375 
Q 14.015625 37.15625 14.015625 26.8125 
z
" id="OpenSans-Regular-6f"/>
      <path d="M 16.21875 53.515625 
L 16.21875 18.796875 
Q 16.21875 12.25 19.1875 9.03125 
Q 22.171875 5.8125 28.515625 5.8125 
Q 36.921875 5.8125 40.796875 10.390625 
Q 44.671875 14.984375 44.671875 25.390625 
L 44.671875 53.515625 
L 52.78125 53.515625 
L 52.78125 0 
L 46.09375 0 
L 44.921875 7.171875 
L 44.484375 7.171875 
Q 42 3.21875 37.578125 1.109375 
Q 33.15625 -0.984375 27.484375 -0.984375 
Q 17.71875 -0.984375 12.859375 3.65625 
Q 8.015625 8.296875 8.015625 18.5 
L 8.015625 53.515625 
z
" id="OpenSans-Regular-75"/>
      <path d="M 52.390625 53.515625 
L 52.390625 48.390625 
L 42.484375 47.21875 
Q 43.84375 45.515625 44.921875 42.75 
Q 46 39.984375 46 36.53125 
Q 46 28.65625 40.625 23.96875 
Q 35.25 19.28125 25.875 19.28125 
Q 23.484375 19.28125 21.390625 19.671875 
Q 16.21875 16.9375 16.21875 12.796875 
Q 16.21875 10.59375 18.015625 9.546875 
Q 19.828125 8.5 24.21875 8.5 
L 33.6875 8.5 
Q 42.390625 8.5 47.046875 4.828125 
Q 51.703125 1.171875 51.703125 -5.8125 
Q 51.703125 -14.703125 44.578125 -19.359375 
Q 37.453125 -24.03125 23.78125 -24.03125 
Q 13.28125 -24.03125 7.59375 -20.125 
Q 1.90625 -16.21875 1.90625 -9.078125 
Q 1.90625 -4.203125 5.03125 -0.625 
Q 8.15625 2.9375 13.8125 4.203125 
Q 11.765625 5.125 10.375 7.078125 
Q 8.984375 9.03125 8.984375 11.625 
Q 8.984375 14.546875 10.546875 16.75 
Q 12.109375 18.953125 15.484375 21 
Q 11.328125 22.703125 8.71875 26.796875 
Q 6.109375 30.90625 6.109375 36.1875 
Q 6.109375 44.96875 11.375 49.734375 
Q 16.65625 54.5 26.3125 54.5 
Q 30.515625 54.5 33.890625 53.515625 
z
M 9.71875 -8.984375 
Q 9.71875 -13.328125 13.375 -15.578125 
Q 17.046875 -17.828125 23.875 -17.828125 
Q 34.078125 -17.828125 38.984375 -14.765625 
Q 43.890625 -11.71875 43.890625 -6.5 
Q 43.890625 -2.15625 41.203125 -0.46875 
Q 38.53125 1.21875 31.109375 1.21875 
L 21.390625 1.21875 
Q 15.875 1.21875 12.796875 -1.40625 
Q 9.71875 -4.046875 9.71875 -8.984375 
z
M 14.109375 36.375 
Q 14.109375 30.765625 17.28125 27.875 
Q 20.453125 25 26.125 25 
Q 37.984375 25 37.984375 36.53125 
Q 37.984375 48.578125 25.984375 48.578125 
Q 20.265625 48.578125 17.1875 45.5 
Q 14.109375 42.4375 14.109375 36.375 
z
" id="OpenSans-Regular-67"/>
      <path d="M 33.5 -0.984375 
Q 28.265625 -0.984375 23.9375 0.9375 
Q 19.625 2.875 16.703125 6.890625 
L 16.109375 6.890625 
Q 16.703125 2.203125 16.703125 -2 
L 16.703125 -24.03125 
L 8.59375 -24.03125 
L 8.59375 53.515625 
L 15.1875 53.515625 
L 16.3125 46.1875 
L 16.703125 46.1875 
Q 19.828125 50.59375 23.96875 52.546875 
Q 28.125 54.5 33.5 54.5 
Q 44.140625 54.5 49.921875 47.21875 
Q 55.71875 39.9375 55.71875 26.8125 
Q 55.71875 13.625 49.828125 6.3125 
Q 43.953125 -0.984375 33.5 -0.984375 
z
M 32.328125 47.609375 
Q 24.125 47.609375 20.453125 43.0625 
Q 16.796875 38.53125 16.703125 28.609375 
L 16.703125 26.8125 
Q 16.703125 15.53125 20.453125 10.671875 
Q 24.21875 5.8125 32.515625 5.8125 
Q 39.453125 5.8125 43.375 11.421875 
Q 47.3125 17.046875 47.3125 26.90625 
Q 47.3125 36.921875 43.375 42.265625 
Q 39.453125 47.609375 32.328125 47.609375 
z
" id="OpenSans-Regular-70"/>
      <path d="M 4 27.390625 
Q 4 40.328125 7.78125 51.609375 
Q 11.578125 62.890625 18.703125 71.390625 
L 26.609375 71.390625 
Q 19.578125 61.96875 16.03125 50.6875 
Q 12.5 39.40625 12.5 27.484375 
Q 12.5 15.765625 16.109375 4.578125 
Q 19.734375 -6.59375 26.515625 -15.828125 
L 18.703125 -15.828125 
Q 11.53125 -7.515625 7.765625 3.5625 
Q 4 14.65625 4 27.390625 
z
" id="OpenSans-Regular-28"/>
      <path d="M 16.703125 0 
L 8.59375 0 
L 8.59375 75.984375 
L 16.703125 75.984375 
z
" id="OpenSans-Regular-6c"/>
      <path d="M 45.21875 0 
L 45.21875 34.625 
Q 45.21875 41.15625 42.234375 44.375 
Q 39.265625 47.609375 32.90625 47.609375 
Q 24.515625 47.609375 20.609375 43.0625 
Q 16.703125 38.53125 16.703125 28.078125 
L 16.703125 0 
L 8.59375 0 
L 8.59375 53.515625 
L 15.1875 53.515625 
L 16.5 46.1875 
L 16.890625 46.1875 
Q 19.390625 50.140625 23.875 52.3125 
Q 28.375 54.5 33.890625 54.5 
Q 43.5625 54.5 48.4375 49.828125 
Q 53.328125 45.171875 53.328125 34.90625 
L 53.328125 0 
z
" id="OpenSans-Regular-6e"/>
      <path d="M 35.6875 71.390625 
L 9.078125 0 
L 0.984375 0 
L 27.59375 71.390625 
z
" id="OpenSans-Regular-2f"/>
      <path d="M 25.59375 27.390625 
Q 25.59375 14.546875 21.796875 3.453125 
Q 18.015625 -7.625 10.890625 -15.828125 
L 3.078125 -15.828125 
Q 9.859375 -6.640625 13.46875 4.5625 
Q 17.09375 15.765625 17.09375 27.484375 
Q 17.09375 39.40625 13.546875 50.6875 
Q 10.015625 61.96875 2.984375 71.390625 
L 10.890625 71.390625 
Q 18.0625 62.84375 21.828125 51.53125 
Q 25.59375 40.234375 25.59375 27.390625 
z
" id="OpenSans-Regular-29"/>
     </defs>
     <g transform="translate(27.890625 209.886328)rotate(-90)scale(0.15 -0.15)">
      <use xlink:href="#OpenSans-Regular-54"/>
      <use x="55.322266" xlink:href="#OpenSans-Regular-68"/>
      <use x="116.699219" xlink:href="#OpenSans-Regular-72"/>
      <use x="157.488281" xlink:href="#OpenSans-Regular-6f"/>
      <use x="217.888672" xlink:href="#OpenSans-Regular-75"/>
      <use x="279.265625" xlink:href="#OpenSans-Regular-67"/>
      <use x="334.050781" xlink:href="#OpenSans-Regular-68"/>
      <use x="395.427734" xlink:href="#OpenSans-Regular-70"/>
      <use x="456.707031" xlink:href="#OpenSans-Regular-75"/>
      <use x="518.083984" xlink:href="#OpenSans-Regular-74"/>
      <use x="553.386719" xlink:href="#OpenSans-Regular-20"/>
      <use x="579.363281" xlink:href="#OpenSans-Regular-28"/>
      <use x="608.953125" xlink:href="#OpenSans-Regular-6c"/>
      <use x="634.246094" xlink:href="#OpenSans-Regular-69"/>
      <use x="659.539062" xlink:href="#OpenSans-Regular-6e"/>
      <use x="720.916016" xlink:href="#OpenSans-Regular-65"/>
      <use x="777.019531" xlink:href="#OpenSans-Regular-73"/>
      <use x="824.724609" xlink:href="#OpenSans-Regular-2f"/>
      <use x="861.443359" xlink:href="#OpenSans-Regular-73"/>
      <use x="909.148438" xlink:href="#OpenSans-Regular-65"/>
      <use x="965.251953" xlink:href="#OpenSans-Regular-63"/>
      <use x="1012.859375" xlink:href="#OpenSans-Regular-29"/>
     </g>
    </g>
   </g>
   <g id="line2d_57">
    <path clip-path="url(#pfd4878858b)" d="M 108.699816 215.846275 
L 141.445212 189.619108 
L 174.25163 166.228884 
L 207.030091 135.363988 
L 239.808107 94.500171 
L 272.58646 59.645742 
L 305.363883 50.084311 
L 338.141386 47.167938 
L 370.918756 45.761475 
L 403.696133 44.881818 
" style="fill:none;stroke:#ff0000;stroke-linecap:square;stroke-width:4;"/>
    <defs>
     <path d="M 0 3 
C 0.795609 3 1.55874 2.683901 2.12132 2.12132 
C 2.683901 1.55874 3 0.795609 3 0 
C 3 -0.795609 2.683901 -1.55874 2.12132 -2.12132 
C 1.55874 -2.683901 0.795609 -3 0 -3 
C -0.795609 -3 -1.55874 -2.683901 -2.12132 -2.12132 
C -2.683901 -1.55874 -3 -0.795609 -3 0 
C -3 0.795609 -2.683901 1.55874 -2.12132 2.12132 
C -1.55874 2.683901 -0.795609 3 0 3 
z
" id="m0713769048" style="stroke:#ff0000;"/>
    </defs>
    <g clip-path="url(#pfd4878858b)">
     <use style="fill:#ff0000;stroke:#ff0000;" x="108.699816" xlink:href="#m0713769048" y="215.846275"/>
     <use style="fill:#ff0000;stroke:#ff0000;" x="141.445212" xlink:href="#m0713769048" y="189.619108"/>
     <use style="fill:#ff0000;stroke:#ff0000;" x="174.25163" xlink:href="#m0713769048" y="166.228884"/>
     <use style="fill:#ff0000;stroke:#ff0000;" x="207.030091" xlink:href="#m0713769048" y="135.363988"/>
     <use style="fill:#ff0000;stroke:#ff0000;" x="239.808107" xlink:href="#m0713769048" y="94.500171"/>
     <use style="fill:#ff0000;stroke:#ff0000;" x="272.58646" xlink:href="#m0713769048" y="59.645742"/>
     <use style="fill:#ff0000;stroke:#ff0000;" x="305.363883" xlink:href="#m0713769048" y="50.084311"/>
     <use style="fill:#ff0000;stroke:#ff0000;" x="338.141386" xlink:href="#m0713769048" y="47.167938"/>
     <use style="fill:#ff0000;stroke:#ff0000;" x="370.918756" xlink:href="#m0713769048" y="45.761475"/>
     <use style="fill:#ff0000;stroke:#ff0000;" x="403.696133" xlink:href="#m0713769048" y="44.881818"/>
    </g>
   </g>
   <g id="line2d_58">
    <path clip-path="url(#pfd4878858b)" d="M 108.699816 218.518182 
L 141.445212 209.246237 
L 174.25163 196.829469 
L 207.030091 177.519185 
L 239.808107 165.500813 
L 272.58646 158.521693 
L 305.363883 157.860979 
L 338.141386 157.288695 
L 370.918756 156.776708 
L 403.696133 156.682551 
" style="fill:none;stroke:#0000ff;stroke-linecap:square;stroke-width:4;"/>
    <defs>
     <path d="M 0 3 
C 0.795609 3 1.55874 2.683901 2.12132 2.12132 
C 2.683901 1.55874 3 0.795609 3 0 
C 3 -0.795609 2.683901 -1.55874 2.12132 -2.12132 
C 1.55874 -2.683901 0.795609 -3 0 -3 
C -0.795609 -3 -1.55874 -2.683901 -2.12132 -2.12132 
C -2.683901 -1.55874 -3 -0.795609 -3 0 
C -3 0.795609 -2.683901 1.55874 -2.12132 2.12132 
C -1.55874 2.683901 -0.795609 3 0 3 
z
" id="ma8723a9914" style="stroke:#0000ff;"/>
    </defs>
    <g clip-path="url(#pfd4878858b)">
     <use style="fill:#0000ff;stroke:#0000ff;" x="108.699816" xlink:href="#ma8723a9914" y="218.518182"/>
     <use style="fill:#0000ff;stroke:#0000ff;" x="141.445212" xlink:href="#ma8723a9914" y="209.246237"/>
     <use style="fill:#0000ff;stroke:#0000ff;" x="174.25163" xlink:href="#ma8723a9914" y="196.829469"/>
     <use style="fill:#0000ff;stroke:#0000ff;" x="207.030091" xlink:href="#ma8723a9914" y="177.519185"/>
     <use style="fill:#0000ff;stroke:#0000ff;" x="239.808107" xlink:href="#ma8723a9914" y="165.500813"/>
     <use style="fill:#0000ff;stroke:#0000ff;" x="272.58646" xlink:href="#ma8723a9914" y="158.521693"/>
     <use style="fill:#0000ff;stroke:#0000ff;" x="305.363883" xlink:href="#ma8723a9914" y="157.860979"/>
     <use style="fill:#0000ff;stroke:#0000ff;" x="338.141386" xlink:href="#ma8723a9914" y="157.288695"/>
     <use style="fill:#0000ff;stroke:#0000ff;" x="370.918756" xlink:href="#ma8723a9914" y="156.776708"/>
     <use style="fill:#0000ff;stroke:#0000ff;" x="403.696133" xlink:href="#ma8723a9914" y="156.682551"/>
    </g>
   </g>
   <g id="patch_3">
    <path d="M 93.95 227.2 
L 93.95 36.2 
" style="fill:none;stroke:#000000;stroke-linecap:square;stroke-linejoin:miter;stroke-width:0.8;"/>
   </g>
   <g id="patch_4">
    <path d="M 418.445949 227.2 
L 418.445949 36.2 
" style="fill:none;stroke:#000000;stroke-linecap:square;stroke-linejoin:miter;stroke-width:0.8;"/>
   </g>
   <g id="patch_5">
    <path d="M 93.95 227.2 
L 418.445949 227.2 
" style="fill:none;stroke:#000000;stroke-linecap:square;stroke-linejoin:miter;stroke-width:0.8;"/>
   </g>
   <g id="patch_6">
    <path d="M 93.95 36.2 
L 418.445949 36.2 
" style="fill:none;stroke:#000000;stroke-linecap:square;stroke-linejoin:miter;stroke-width:0.8;"/>
   </g>
   <g id="text_15">
    <!-- allstate -->
    <g transform="translate(225.938287 30.2)scale(0.18 -0.18)">
     <use xlink:href="#OpenSans-Regular-61"/>
     <use x="55.615234" xlink:href="#OpenSans-Regular-6c"/>
     <use x="80.908203" xlink:href="#OpenSans-Regular-6c"/>
     <use x="106.201172" xlink:href="#OpenSans-Regular-73"/>
     <use x="153.90625" xlink:href="#OpenSans-Regular-74"/>
     <use x="189.208984" xlink:href="#OpenSans-Regular-61"/>
     <use x="244.824219" xlink:href="#OpenSans-Regular-74"/>
     <use x="280.126953" xlink:href="#OpenSans-Regular-65"/>
    </g>
   </g>
   <g id="legend_1">
    <g id="patch_7">
     <path d="M 104.45 93.204687 
L 212.314062 93.204687 
Q 215.314062 93.204687 215.314062 90.204687 
L 215.314062 46.7 
Q 215.314062 43.7 212.314062 43.7 
L 104.45 43.7 
Q 101.45 43.7 101.45 46.7 
L 101.45 90.204687 
Q 101.45 93.204687 104.45 93.204687 
z
" style="fill:#ffffff;opacity:0.8;stroke:#cccccc;stroke-linejoin:miter;"/>
    </g>
    <g id="line2d_59">
     <path d="M 107.45 55.847656 
L 137.45 55.847656 
" style="fill:none;stroke:#ff0000;stroke-linecap:square;stroke-width:4;"/>
    </g>
    <g id="line2d_60">
     <g>
      <use style="fill:#ff0000;stroke:#ff0000;" x="122.45" xlink:href="#m0713769048" y="55.847656"/>
     </g>
    </g>
    <g id="text_16">
     <!-- Treelite -->
     <g transform="translate(149.45 61.097656)scale(0.15 -0.15)">
      <use xlink:href="#OpenSans-Regular-54"/>
      <use x="55.244141" xlink:href="#OpenSans-Regular-72"/>
      <use x="96.033203" xlink:href="#OpenSans-Regular-65"/>
      <use x="152.136719" xlink:href="#OpenSans-Regular-65"/>
      <use x="208.240234" xlink:href="#OpenSans-Regular-6c"/>
      <use x="233.533203" xlink:href="#OpenSans-Regular-69"/>
      <use x="258.826172" xlink:href="#OpenSans-Regular-74"/>
      <use x="294.128906" xlink:href="#OpenSans-Regular-65"/>
     </g>
    </g>
    <g id="line2d_61">
     <path d="M 107.45 78.35 
L 137.45 78.35 
" style="fill:none;stroke:#0000ff;stroke-linecap:square;stroke-width:4;"/>
    </g>
    <g id="line2d_62">
     <g>
      <use style="fill:#0000ff;stroke:#0000ff;" x="122.45" xlink:href="#ma8723a9914" y="78.35"/>
     </g>
    </g>
    <g id="text_17">
     <!-- XGBoost -->
     <defs>
      <path d="M 57.328125 0 
L 47.90625 0 
L 28.71875 31.390625 
L 9.1875 0 
L 0.390625 0 
L 24.125 37.3125 
L 2 71.390625 
L 11.1875 71.390625 
L 28.90625 43.109375 
L 46.78125 71.390625 
L 55.609375 71.390625 
L 33.5 37.59375 
z
" id="OpenSans-Regular-58"/>
      <path d="M 41.21875 37.40625 
L 65.484375 37.40625 
L 65.484375 2.6875 
Q 59.8125 0.875 53.953125 -0.046875 
Q 48.09375 -0.984375 40.375 -0.984375 
Q 24.171875 -0.984375 15.140625 8.65625 
Q 6.109375 18.3125 6.109375 35.6875 
Q 6.109375 46.828125 10.578125 55.203125 
Q 15.046875 63.578125 23.4375 67.984375 
Q 31.84375 72.40625 43.109375 72.40625 
Q 54.546875 72.40625 64.40625 68.21875 
L 61.1875 60.890625 
Q 51.515625 64.984375 42.578125 64.984375 
Q 29.546875 64.984375 22.21875 57.21875 
Q 14.890625 49.46875 14.890625 35.6875 
Q 14.890625 21.234375 21.9375 13.765625 
Q 29 6.296875 42.671875 6.296875 
Q 50.09375 6.296875 57.171875 8.015625 
L 57.171875 29.984375 
L 41.21875 29.984375 
z
" id="OpenSans-Regular-47"/>
     </defs>
     <g transform="translate(149.45 83.6)scale(0.15 -0.15)">
      <use xlink:href="#OpenSans-Regular-58"/>
      <use x="57.683594" xlink:href="#OpenSans-Regular-47"/>
      <use x="130.486328" xlink:href="#OpenSans-Regular-42"/>
      <use x="195.28125" xlink:href="#OpenSans-Regular-6f"/>
      <use x="255.681641" xlink:href="#OpenSans-Regular-6f"/>
      <use x="316.082031" xlink:href="#OpenSans-Regular-73"/>
      <use x="363.787109" xlink:href="#OpenSans-Regular-74"/>
     </g>
    </g>
   </g>
  </g>
  <g id="axes_2">
   <g id="patch_8">
    <path d="M 519.804051 227.2 
L 844.3 227.2 
L 844.3 36.2 
L 519.804051 36.2 
z
" style="fill:#ffffff;"/>
   </g>
   <g id="matplotlib.axis_3">
    <g id="xtick_51">
     <g id="line2d_63">
      <g>
       <use style="stroke:#000000;stroke-width:0.8;" x="534.553867" xlink:href="#m25505fb965" y="227.2"/>
      </g>
     </g>
     <g id="text_18">
      <!-- $\mathdefault{10^{2}}$ -->
      <g transform="translate(522.703867 245.597656)scale(0.15 -0.15)">
       <use transform="translate(0 0.854688)" xlink:href="#OpenSans-Regular-31"/>
       <use transform="translate(57.177734 0.854688)" xlink:href="#OpenSans-Regular-30"/>
       <use transform="translate(115.291992 38.315625)scale(0.7)" xlink:href="#OpenSans-Regular-32"/>
      </g>
     </g>
    </g>
    <g id="xtick_52">
     <g id="line2d_64">
      <g>
       <use style="stroke:#000000;stroke-width:0.8;" x="614.82534" xlink:href="#m25505fb965" y="227.2"/>
      </g>
     </g>
     <g id="text_19">
      <!-- $\mathdefault{10^{3}}$ -->
      <g transform="translate(602.97534 245.597656)scale(0.15 -0.15)">
       <use transform="translate(0 0.854688)" xlink:href="#OpenSans-Regular-31"/>
       <use transform="translate(57.177734 0.854688)" xlink:href="#OpenSans-Regular-30"/>
       <use transform="translate(115.291992 38.315625)scale(0.7)" xlink:href="#OpenSans-Regular-33"/>
      </g>
     </g>
    </g>
    <g id="xtick_53">
     <g id="line2d_65">
      <g>
       <use style="stroke:#000000;stroke-width:0.8;" x="695.096812" xlink:href="#m25505fb965" y="227.2"/>
      </g>
     </g>
     <g id="text_20">
      <!-- $\mathdefault{10^{4}}$ -->
      <g transform="translate(683.246812 245.597656)scale(0.15 -0.15)">
       <use transform="translate(0 0.292188)" xlink:href="#OpenSans-Regular-31"/>
       <use transform="translate(57.177734 0.292188)" xlink:href="#OpenSans-Regular-30"/>
       <use transform="translate(115.291992 37.753125)scale(0.7)" xlink:href="#OpenSans-Regular-34"/>
      </g>
     </g>
    </g>
    <g id="xtick_54">
     <g id="line2d_66">
      <g>
       <use style="stroke:#000000;stroke-width:0.8;" x="775.368285" xlink:href="#m25505fb965" y="227.2"/>
      </g>
     </g>
     <g id="text_21">
      <!-- $\mathdefault{10^{5}}$ -->
      <g transform="translate(763.518285 245.597656)scale(0.15 -0.15)">
       <use transform="translate(0 0.565625)" xlink:href="#OpenSans-Regular-31"/>
       <use transform="translate(57.177734 0.565625)" xlink:href="#OpenSans-Regular-30"/>
       <use transform="translate(115.291992 38.026563)scale(0.7)" xlink:href="#OpenSans-Regular-35"/>
      </g>
     </g>
    </g>
    <g id="xtick_55">
     <g id="line2d_67">
      <g>
       <use style="stroke:#000000;stroke-width:0.6;" x="522.119658" xlink:href="#m36e3c2f8eb" y="227.2"/>
      </g>
     </g>
    </g>
    <g id="xtick_56">
     <g id="line2d_68">
      <g>
       <use style="stroke:#000000;stroke-width:0.6;" x="526.774757" xlink:href="#m36e3c2f8eb" y="227.2"/>
      </g>
     </g>
    </g>
    <g id="xtick_57">
     <g id="line2d_69">
      <g>
       <use style="stroke:#000000;stroke-width:0.6;" x="530.880846" xlink:href="#m36e3c2f8eb" y="227.2"/>
      </g>
     </g>
    </g>
    <g id="xtick_58">
     <g id="line2d_70">
      <g>
       <use style="stroke:#000000;stroke-width:0.6;" x="558.717988" xlink:href="#m36e3c2f8eb" y="227.2"/>
      </g>
     </g>
    </g>
    <g id="xtick_59">
     <g id="line2d_71">
      <g>
       <use style="stroke:#000000;stroke-width:0.6;" x="572.853093" xlink:href="#m36e3c2f8eb" y="227.2"/>
      </g>
     </g>
    </g>
    <g id="xtick_60">
     <g id="line2d_72">
      <g>
       <use style="stroke:#000000;stroke-width:0.6;" x="582.882109" xlink:href="#m36e3c2f8eb" y="227.2"/>
      </g>
     </g>
    </g>
    <g id="xtick_61">
     <g id="line2d_73">
      <g>
       <use style="stroke:#000000;stroke-width:0.6;" x="590.661219" xlink:href="#m36e3c2f8eb" y="227.2"/>
      </g>
     </g>
    </g>
    <g id="xtick_62">
     <g id="line2d_74">
      <g>
       <use style="stroke:#000000;stroke-width:0.6;" x="597.017214" xlink:href="#m36e3c2f8eb" y="227.2"/>
      </g>
     </g>
    </g>
    <g id="xtick_63">
     <g id="line2d_75">
      <g>
       <use style="stroke:#000000;stroke-width:0.6;" x="602.391131" xlink:href="#m36e3c2f8eb" y="227.2"/>
      </g>
     </g>
    </g>
    <g id="xtick_64">
     <g id="line2d_76">
      <g>
       <use style="stroke:#000000;stroke-width:0.6;" x="607.04623" xlink:href="#m36e3c2f8eb" y="227.2"/>
      </g>
     </g>
    </g>
    <g id="xtick_65">
     <g id="line2d_77">
      <g>
       <use style="stroke:#000000;stroke-width:0.6;" x="611.152318" xlink:href="#m36e3c2f8eb" y="227.2"/>
      </g>
     </g>
    </g>
    <g id="xtick_66">
     <g id="line2d_78">
      <g>
       <use style="stroke:#000000;stroke-width:0.6;" x="638.989461" xlink:href="#m36e3c2f8eb" y="227.2"/>
      </g>
     </g>
    </g>
    <g id="xtick_67">
     <g id="line2d_79">
      <g>
       <use style="stroke:#000000;stroke-width:0.6;" x="653.124565" xlink:href="#m36e3c2f8eb" y="227.2"/>
      </g>
     </g>
    </g>
    <g id="xtick_68">
     <g id="line2d_80">
      <g>
       <use style="stroke:#000000;stroke-width:0.6;" x="663.153582" xlink:href="#m36e3c2f8eb" y="227.2"/>
      </g>
     </g>
    </g>
    <g id="xtick_69">
     <g id="line2d_81">
      <g>
       <use style="stroke:#000000;stroke-width:0.6;" x="670.932691" xlink:href="#m36e3c2f8eb" y="227.2"/>
      </g>
     </g>
    </g>
    <g id="xtick_70">
     <g id="line2d_82">
      <g>
       <use style="stroke:#000000;stroke-width:0.6;" x="677.288687" xlink:href="#m36e3c2f8eb" y="227.2"/>
      </g>
     </g>
    </g>
    <g id="xtick_71">
     <g id="line2d_83">
      <g>
       <use style="stroke:#000000;stroke-width:0.6;" x="682.662604" xlink:href="#m36e3c2f8eb" y="227.2"/>
      </g>
     </g>
    </g>
    <g id="xtick_72">
     <g id="line2d_84">
      <g>
       <use style="stroke:#000000;stroke-width:0.6;" x="687.317703" xlink:href="#m36e3c2f8eb" y="227.2"/>
      </g>
     </g>
    </g>
    <g id="xtick_73">
     <g id="line2d_85">
      <g>
       <use style="stroke:#000000;stroke-width:0.6;" x="691.423791" xlink:href="#m36e3c2f8eb" y="227.2"/>
      </g>
     </g>
    </g>
    <g id="xtick_74">
     <g id="line2d_86">
      <g>
       <use style="stroke:#000000;stroke-width:0.6;" x="719.260934" xlink:href="#m36e3c2f8eb" y="227.2"/>
      </g>
     </g>
    </g>
    <g id="xtick_75">
     <g id="line2d_87">
      <g>
       <use style="stroke:#000000;stroke-width:0.6;" x="733.396038" xlink:href="#m36e3c2f8eb" y="227.2"/>
      </g>
     </g>
    </g>
    <g id="xtick_76">
     <g id="line2d_88">
      <g>
       <use style="stroke:#000000;stroke-width:0.6;" x="743.425055" xlink:href="#m36e3c2f8eb" y="227.2"/>
      </g>
     </g>
    </g>
    <g id="xtick_77">
     <g id="line2d_89">
      <g>
       <use style="stroke:#000000;stroke-width:0.6;" x="751.204164" xlink:href="#m36e3c2f8eb" y="227.2"/>
      </g>
     </g>
    </g>
    <g id="xtick_78">
     <g id="line2d_90">
      <g>
       <use style="stroke:#000000;stroke-width:0.6;" x="757.560159" xlink:href="#m36e3c2f8eb" y="227.2"/>
      </g>
     </g>
    </g>
    <g id="xtick_79">
     <g id="line2d_91">
      <g>
       <use style="stroke:#000000;stroke-width:0.6;" x="762.934077" xlink:href="#m36e3c2f8eb" y="227.2"/>
      </g>
     </g>
    </g>
    <g id="xtick_80">
     <g id="line2d_92">
      <g>
       <use style="stroke:#000000;stroke-width:0.6;" x="767.589176" xlink:href="#m36e3c2f8eb" y="227.2"/>
      </g>
     </g>
    </g>
    <g id="xtick_81">
     <g id="line2d_93">
      <g>
       <use style="stroke:#000000;stroke-width:0.6;" x="771.695264" xlink:href="#m36e3c2f8eb" y="227.2"/>
      </g>
     </g>
    </g>
    <g id="xtick_82">
     <g id="line2d_94">
      <g>
       <use style="stroke:#000000;stroke-width:0.6;" x="799.532406" xlink:href="#m36e3c2f8eb" y="227.2"/>
      </g>
     </g>
    </g>
    <g id="xtick_83">
     <g id="line2d_95">
      <g>
       <use style="stroke:#000000;stroke-width:0.6;" x="813.667511" xlink:href="#m36e3c2f8eb" y="227.2"/>
      </g>
     </g>
    </g>
    <g id="xtick_84">
     <g id="line2d_96">
      <g>
       <use style="stroke:#000000;stroke-width:0.6;" x="823.696528" xlink:href="#m36e3c2f8eb" y="227.2"/>
      </g>
     </g>
    </g>
    <g id="xtick_85">
     <g id="line2d_97">
      <g>
       <use style="stroke:#000000;stroke-width:0.6;" x="831.475637" xlink:href="#m36e3c2f8eb" y="227.2"/>
      </g>
     </g>
    </g>
    <g id="xtick_86">
     <g id="line2d_98">
      <g>
       <use style="stroke:#000000;stroke-width:0.6;" x="837.831632" xlink:href="#m36e3c2f8eb" y="227.2"/>
      </g>
     </g>
    </g>
    <g id="xtick_87">
     <g id="line2d_99">
      <g>
       <use style="stroke:#000000;stroke-width:0.6;" x="843.20555" xlink:href="#m36e3c2f8eb" y="227.2"/>
      </g>
     </g>
    </g>
    <g id="text_22">
     <!-- Batch size -->
     <g transform="translate(647.059838 264.6)scale(0.15 -0.15)">
      <use xlink:href="#OpenSans-Regular-42"/>
      <use x="64.794922" xlink:href="#OpenSans-Regular-61"/>
      <use x="120.410156" xlink:href="#OpenSans-Regular-74"/>
      <use x="155.712891" xlink:href="#OpenSans-Regular-63"/>
      <use x="203.320312" xlink:href="#OpenSans-Regular-68"/>
      <use x="264.697266" xlink:href="#OpenSans-Regular-20"/>
      <use x="290.673828" xlink:href="#OpenSans-Regular-73"/>
      <use x="338.378906" xlink:href="#OpenSans-Regular-69"/>
      <use x="363.671875" xlink:href="#OpenSans-Regular-7a"/>
      <use x="410.449219" xlink:href="#OpenSans-Regular-65"/>
     </g>
    </g>
   </g>
   <g id="matplotlib.axis_4">
    <g id="ytick_7">
     <g id="line2d_100">
      <g>
       <use style="stroke:#000000;stroke-width:0.8;" x="519.804051" xlink:href="#m4c9c4d81d1" y="194.587312"/>
      </g>
     </g>
     <g id="text_23">
      <!-- 50000 -->
      <g transform="translate(469.925145 200.28614)scale(0.15 -0.15)">
       <use xlink:href="#OpenSans-Regular-35"/>
       <use x="57.177734" xlink:href="#OpenSans-Regular-30"/>
       <use x="114.355469" xlink:href="#OpenSans-Regular-30"/>
       <use x="171.533203" xlink:href="#OpenSans-Regular-30"/>
       <use x="228.710938" xlink:href="#OpenSans-Regular-30"/>
      </g>
     </g>
    </g>
    <g id="ytick_8">
     <g id="line2d_101">
      <g>
       <use style="stroke:#000000;stroke-width:0.8;" x="519.804051" xlink:href="#m4c9c4d81d1" y="152.32636"/>
      </g>
     </g>
     <g id="text_24">
      <!-- 100000 -->
      <g transform="translate(461.349363 158.025188)scale(0.15 -0.15)">
       <use xlink:href="#OpenSans-Regular-31"/>
       <use x="57.177734" xlink:href="#OpenSans-Regular-30"/>
       <use x="114.355469" xlink:href="#OpenSans-Regular-30"/>
       <use x="171.533203" xlink:href="#OpenSans-Regular-30"/>
       <use x="228.710938" xlink:href="#OpenSans-Regular-30"/>
       <use x="285.888672" xlink:href="#OpenSans-Regular-30"/>
      </g>
     </g>
    </g>
    <g id="ytick_9">
     <g id="line2d_102">
      <g>
       <use style="stroke:#000000;stroke-width:0.8;" x="519.804051" xlink:href="#m4c9c4d81d1" y="110.065408"/>
      </g>
     </g>
     <g id="text_25">
      <!-- 150000 -->
      <g transform="translate(461.349363 115.764236)scale(0.15 -0.15)">
       <use xlink:href="#OpenSans-Regular-31"/>
       <use x="57.177734" xlink:href="#OpenSans-Regular-35"/>
       <use x="114.355469" xlink:href="#OpenSans-Regular-30"/>
       <use x="171.533203" xlink:href="#OpenSans-Regular-30"/>
       <use x="228.710938" xlink:href="#OpenSans-Regular-30"/>
       <use x="285.888672" xlink:href="#OpenSans-Regular-30"/>
      </g>
     </g>
    </g>
    <g id="ytick_10">
     <g id="line2d_103">
      <g>
       <use style="stroke:#000000;stroke-width:0.8;" x="519.804051" xlink:href="#m4c9c4d81d1" y="67.804457"/>
      </g>
     </g>
     <g id="text_26">
      <!-- 200000 -->
      <g transform="translate(461.349363 73.503285)scale(0.15 -0.15)">
       <use xlink:href="#OpenSans-Regular-32"/>
       <use x="57.177734" xlink:href="#OpenSans-Regular-30"/>
       <use x="114.355469" xlink:href="#OpenSans-Regular-30"/>
       <use x="171.533203" xlink:href="#OpenSans-Regular-30"/>
       <use x="228.710938" xlink:href="#OpenSans-Regular-30"/>
       <use x="285.888672" xlink:href="#OpenSans-Regular-30"/>
      </g>
     </g>
    </g>
    <g id="text_27">
     <!-- Throughput (lines/sec) -->
     <g transform="translate(453.744676 209.886328)rotate(-90)scale(0.15 -0.15)">
      <use xlink:href="#OpenSans-Regular-54"/>
      <use x="55.322266" xlink:href="#OpenSans-Regular-68"/>
      <use x="116.699219" xlink:href="#OpenSans-Regular-72"/>
      <use x="157.488281" xlink:href="#OpenSans-Regular-6f"/>
      <use x="217.888672" xlink:href="#OpenSans-Regular-75"/>
      <use x="279.265625" xlink:href="#OpenSans-Regular-67"/>
      <use x="334.050781" xlink:href="#OpenSans-Regular-68"/>
      <use x="395.427734" xlink:href="#OpenSans-Regular-70"/>
      <use x="456.707031" xlink:href="#OpenSans-Regular-75"/>
      <use x="518.083984" xlink:href="#OpenSans-Regular-74"/>
      <use x="553.386719" xlink:href="#OpenSans-Regular-20"/>
      <use x="579.363281" xlink:href="#OpenSans-Regular-28"/>
      <use x="608.953125" xlink:href="#OpenSans-Regular-6c"/>
      <use x="634.246094" xlink:href="#OpenSans-Regular-69"/>
      <use x="659.539062" xlink:href="#OpenSans-Regular-6e"/>
      <use x="720.916016" xlink:href="#OpenSans-Regular-65"/>
      <use x="777.019531" xlink:href="#OpenSans-Regular-73"/>
      <use x="824.724609" xlink:href="#OpenSans-Regular-2f"/>
      <use x="861.443359" xlink:href="#OpenSans-Regular-73"/>
      <use x="909.148438" xlink:href="#OpenSans-Regular-65"/>
      <use x="965.251953" xlink:href="#OpenSans-Regular-63"/>
      <use x="1012.859375" xlink:href="#OpenSans-Regular-29"/>
     </g>
    </g>
   </g>
   <g id="line2d_104">
    <path clip-path="url(#p36396c96cc)" d="M 534.553867 189.55976 
L 567.32389 158.186337 
L 600.074758 152.029132 
L 632.869721 141.200057 
L 665.658567 103.779761 
L 698.438474 72.176782 
L 731.217949 55.161829 
L 763.995471 48.57155 
L 796.772695 47.679849 
L 829.550184 44.881818 
" style="fill:none;stroke:#ff0000;stroke-linecap:square;stroke-width:4;"/>
    <g clip-path="url(#p36396c96cc)">
     <use style="fill:#ff0000;stroke:#ff0000;" x="534.553867" xlink:href="#m0713769048" y="189.55976"/>
     <use style="fill:#ff0000;stroke:#ff0000;" x="567.32389" xlink:href="#m0713769048" y="158.186337"/>
     <use style="fill:#ff0000;stroke:#ff0000;" x="600.074758" xlink:href="#m0713769048" y="152.029132"/>
     <use style="fill:#ff0000;stroke:#ff0000;" x="632.869721" xlink:href="#m0713769048" y="141.200057"/>
     <use style="fill:#ff0000;stroke:#ff0000;" x="665.658567" xlink:href="#m0713769048" y="103.779761"/>
     <use style="fill:#ff0000;stroke:#ff0000;" x="698.438474" xlink:href="#m0713769048" y="72.176782"/>
     <use style="fill:#ff0000;stroke:#ff0000;" x="731.217949" xlink:href="#m0713769048" y="55.161829"/>
     <use style="fill:#ff0000;stroke:#ff0000;" x="763.995471" xlink:href="#m0713769048" y="48.57155"/>
     <use style="fill:#ff0000;stroke:#ff0000;" x="796.772695" xlink:href="#m0713769048" y="47.679849"/>
     <use style="fill:#ff0000;stroke:#ff0000;" x="829.550184" xlink:href="#m0713769048" y="44.881818"/>
    </g>
   </g>
   <g id="line2d_105">
    <path clip-path="url(#p36396c96cc)" d="M 534.553867 218.518182 
L 567.32389 199.055283 
L 600.074758 185.932607 
L 632.869721 169.376569 
L 665.658567 148.387635 
L 698.438474 133.09176 
L 731.217949 129.331083 
L 763.995471 127.539927 
L 796.772695 127.67829 
L 829.550184 126.86568 
" style="fill:none;stroke:#0000ff;stroke-linecap:square;stroke-width:4;"/>
    <g clip-path="url(#p36396c96cc)">
     <use style="fill:#0000ff;stroke:#0000ff;" x="534.553867" xlink:href="#ma8723a9914" y="218.518182"/>
     <use style="fill:#0000ff;stroke:#0000ff;" x="567.32389" xlink:href="#ma8723a9914" y="199.055283"/>
     <use style="fill:#0000ff;stroke:#0000ff;" x="600.074758" xlink:href="#ma8723a9914" y="185.932607"/>
     <use style="fill:#0000ff;stroke:#0000ff;" x="632.869721" xlink:href="#ma8723a9914" y="169.376569"/>
     <use style="fill:#0000ff;stroke:#0000ff;" x="665.658567" xlink:href="#ma8723a9914" y="148.387635"/>
     <use style="fill:#0000ff;stroke:#0000ff;" x="698.438474" xlink:href="#ma8723a9914" y="133.09176"/>
     <use style="fill:#0000ff;stroke:#0000ff;" x="731.217949" xlink:href="#ma8723a9914" y="129.331083"/>
     <use style="fill:#0000ff;stroke:#0000ff;" x="763.995471" xlink:href="#ma8723a9914" y="127.539927"/>
     <use style="fill:#0000ff;stroke:#0000ff;" x="796.772695" xlink:href="#ma8723a9914" y="127.67829"/>
     <use style="fill:#0000ff;stroke:#0000ff;" x="829.550184" xlink:href="#ma8723a9914" y="126.86568"/>
    </g>
   </g>
   <g id="patch_9">
    <path d="M 519.804051 227.2 
L 519.804051 36.2 
" style="fill:none;stroke:#000000;stroke-linecap:square;stroke-linejoin:miter;stroke-width:0.8;"/>
   </g>
   <g id="patch_10">
    <path d="M 844.3 227.2 
L 844.3 36.2 
" style="fill:none;stroke:#000000;stroke-linecap:square;stroke-linejoin:miter;stroke-width:0.8;"/>
   </g>
   <g id="patch_11">
    <path d="M 519.804051 227.2 
L 844.3 227.2 
" style="fill:none;stroke:#000000;stroke-linecap:square;stroke-linejoin:miter;stroke-width:0.8;"/>
   </g>
   <g id="patch_12">
    <path d="M 519.804051 36.2 
L 844.3 36.2 
" style="fill:none;stroke:#000000;stroke-linecap:square;stroke-linejoin:miter;stroke-width:0.8;"/>
   </g>
   <g id="text_28">
    <!-- yahoo -->
    <defs>
     <path d="M 0.09375 53.515625 
L 8.796875 53.515625 
L 20.515625 23 
Q 24.359375 12.546875 25.296875 7.90625 
L 25.6875 7.90625 
Q 26.3125 10.40625 28.34375 16.4375 
Q 30.375 22.46875 41.609375 53.515625 
L 50.296875 53.515625 
L 27.296875 -7.421875 
Q 23.875 -16.453125 19.3125 -20.234375 
Q 14.75 -24.03125 8.109375 -24.03125 
Q 4.390625 -24.03125 0.78125 -23.1875 
L 0.78125 -16.703125 
Q 3.46875 -17.28125 6.78125 -17.28125 
Q 15.140625 -17.28125 18.703125 -7.90625 
L 21.6875 -0.296875 
z
" id="OpenSans-Regular-79"/>
    </defs>
    <g transform="translate(656.11515 30.2)scale(0.18 -0.18)">
     <use xlink:href="#OpenSans-Regular-79"/>
     <use x="50.390625" xlink:href="#OpenSans-Regular-61"/>
     <use x="106.005859" xlink:href="#OpenSans-Regular-68"/>
     <use x="167.382812" xlink:href="#OpenSans-Regular-6f"/>
     <use x="227.783203" xlink:href="#OpenSans-Regular-6f"/>
    </g>
   </g>
   <g id="legend_2">
    <g id="patch_13">
     <path d="M 530.304051 93.204687 
L 638.168113 93.204687 
Q 641.168113 93.204687 641.168113 90.204687 
L 641.168113 46.7 
Q 641.168113 43.7 638.168113 43.7 
L 530.304051 43.7 
Q 527.304051 43.7 527.304051 46.7 
L 527.304051 90.204687 
Q 527.304051 93.204687 530.304051 93.204687 
z
" style="fill:#ffffff;opacity:0.8;stroke:#cccccc;stroke-linejoin:miter;"/>
    </g>
    <g id="line2d_106">
     <path d="M 533.304051 55.847656 
L 563.304051 55.847656 
" style="fill:none;stroke:#ff0000;stroke-linecap:square;stroke-width:4;"/>
    </g>
    <g id="line2d_107">
     <g>
      <use style="fill:#ff0000;stroke:#ff0000;" x="548.304051" xlink:href="#m0713769048" y="55.847656"/>
     </g>
    </g>
    <g id="text_29">
     <!-- Treelite -->
     <g transform="translate(575.304051 61.097656)scale(0.15 -0.15)">
      <use xlink:href="#OpenSans-Regular-54"/>
      <use x="55.244141" xlink:href="#OpenSans-Regular-72"/>
      <use x="96.033203" xlink:href="#OpenSans-Regular-65"/>
      <use x="152.136719" xlink:href="#OpenSans-Regular-65"/>
      <use x="208.240234" xlink:href="#OpenSans-Regular-6c"/>
      <use x="233.533203" xlink:href="#OpenSans-Regular-69"/>
      <use x="258.826172" xlink:href="#OpenSans-Regular-74"/>
      <use x="294.128906" xlink:href="#OpenSans-Regular-65"/>
     </g>
    </g>
    <g id="line2d_108">
     <path d="M 533.304051 78.35 
L 563.304051 78.35 
" style="fill:none;stroke:#0000ff;stroke-linecap:square;stroke-width:4;"/>
    </g>
    <g id="line2d_109">
     <g>
      <use style="fill:#0000ff;stroke:#0000ff;" x="548.304051" xlink:href="#ma8723a9914" y="78.35"/>
     </g>
    </g>
    <g id="text_30">
     <!-- XGBoost -->
     <g transform="translate(575.304051 83.6)scale(0.15 -0.15)">
      <use xlink:href="#OpenSans-Regular-58"/>
      <use x="57.683594" xlink:href="#OpenSans-Regular-47"/>
      <use x="130.486328" xlink:href="#OpenSans-Regular-42"/>
      <use x="195.28125" xlink:href="#OpenSans-Regular-6f"/>
      <use x="255.681641" xlink:href="#OpenSans-Regular-6f"/>
      <use x="316.082031" xlink:href="#OpenSans-Regular-73"/>
      <use x="363.787109" xlink:href="#OpenSans-Regular-74"/>
     </g>
    </g>
   </g>
  </g>
 </g>
 <defs>
  <clipPath id="pfd4878858b">
   <rect height="191" width="324.495949" x="93.95" y="36.2"/>
  </clipPath>
  <clipPath id="p36396c96cc">
   <rect height="191" width="324.495949" x="519.804051" y="36.2"/>
  </clipPath>
 </defs>
</svg>
